<svg width="56" height="53" viewBox="0 0 56 53" fill="#7F7F7F" stroke="#7F7F7F" xmlns="http://www.w3.org/2000/svg">
<path d="M6.39892 6.39889C13.657 -0.859247 18.4197 5.6918 18.4197 5.6918L5.69179 18.4197C5.69179 18.4197 -0.859206 13.657 6.39892 6.39889Z"/>
<path d="M49.0558 6.39892C56.3139 13.657 49.7629 18.4197 49.7629 18.4197L37.035 5.69179C37.035 5.69179 41.7976 -0.859206 49.0558 6.39892Z"/>
<line x1="17.8541" y1="40.3383" x2="8.48626" y2="50.7423" stroke-width="4"/>
<line x1="38.4142" y1="40.5858" x2="48.3137" y2="50.4853" stroke-width="4"/>
<path fill-rule="evenodd" clip-rule="evenodd" d="M50 29.5C50 41.3741 40.1503 51 28 51C15.8497 51 6 41.3741 6 29.5C6 17.6259 15.8497 8 28 8C40.1503 8 50 17.6259 50 29.5ZM27 11H30V30H27H15V27H27V11Z"/>
</svg>
