<svg width="50" height="50" viewBox="0 0 50 50" fill="#7F7F7F" xmlns="http://www.w3.org/2000/svg">
<path d="M25 0C30.8901 7.02392e-08 36.5911 2.07972 41.0977 5.87242C45.6043 9.66513 48.627 14.9272 49.6328 20.7309C50.6386 26.5345 49.563 32.5069 46.5956 37.5949C43.6281 42.6829 38.9595 46.5598 33.4129 48.542C27.8663 50.5241 21.7979 50.4841 16.2779 48.4291C10.7578 46.3742 6.14065 42.4361 3.24047 37.3095C0.340294 32.1828 -0.656607 26.1968 0.425556 20.4069C1.50772 14.617 4.59944 9.39516 9.15556 5.66212L12.3214 9.52593C8.67558 12.5131 6.2016 16.6916 5.33566 21.3246C4.46971 25.9576 5.26743 30.7476 7.58814 34.85C9.90885 38.9523 13.6035 42.1035 18.0206 43.7479C22.4377 45.3923 27.2936 45.4242 31.7319 43.8381C36.1703 42.2521 39.9061 39.1498 42.2807 35.0784C44.6552 31.007 45.5159 26.2279 44.711 21.5839C43.9062 16.9398 41.4874 12.7291 37.8813 9.69421C34.2752 6.65931 29.7133 4.99513 25 4.99513L25 0Z"/>
<path d="M13.1622 13.5641C12.453 12.6368 13.6367 11.453 14.5641 12.1622L28.5254 22.8399C29.0058 23.2072 29.0527 23.9137 28.6251 24.3413L25.3413 27.6251C24.9136 28.0527 24.2072 28.0058 23.8398 27.5255L13.1622 13.5641Z" />
<rect x="22" width="6" height="13" rx="1" />
</svg>
