<svg width="51" height="51" viewBox="0 0 51 51" fill="none" stroke="#7F7F7F" xmlns="http://www.w3.org/2000/svg">
<path d="M25 2C25 2 25 19.4433 25 25.2577C25 31.0722 25 49 25 49" stroke-width="3"/>
<path d="M2 25C2 25 19.4433 25 25.2577 25C31.0722 25 49 25 49 25" stroke-width="3"/>
<path d="M7 11C7 11 11 14.5 25.5 14.5C40 14.5 45 11 45 11" stroke-width="3"/>
<path d="M6 40C6 40 12.5 36 25 36C37.5 36 45 40 45 40" stroke-width="3"/>
<path d="M25 2.5C25 2.5 37.5 3 38 25C38.5 47 25 48.5 25 48.5" stroke-width="3"/>
<path d="M25 2.5C25 2.5 50 1.5 49 26C48 50.5 25 48.5 25 48.5" stroke-width="3"/>
<path d="M25.5 3C25.5 3 13 4.5 13 25.5C13 46.5 25.5 48 25.5 48" stroke-width="3"/>
<path d="M25.5 2.5C25.5 2.5 2 2.5 2 26C2 49.5 25.4999 48.5 25.4999 48.5" stroke-width="3"/>
</svg>
