<svg width="49" height="52" viewBox="0 0 49 52" fill="#7F7F7F" xmlns="http://www.w3.org/2000/svg">
<path fill-rule="evenodd" clip-rule="evenodd" d="M49 27.5C49 41.031 38.031 52 24.5 52C10.969 52 0 41.031 0 27.5C0 13.969 10.969 3 24.5 3C38.031 3 49 13.969 49 27.5ZM28 27C28 28.4806 27.1956 29.7733 26 30.4649V35H22V30.4649C20.8044 29.7733 20 28.4806 20 27C20 25.5194 20.8044 24.2267 22 23.5351V8H26V23.5351C27.1956 24.2267 28 25.5194 28 27Z"/>
<rect x="21" width="6" height="4" rx="2"/>
<rect x="42.9269" y="4.09848" width="7.27494" height="4" rx="2" transform="rotate(45 42.9269 4.09848)" />
</svg>
